<svg xmlns="http://www.w3.org/2000/svg" viewBox="0 0 100 100" width="100%" height="100%">
  <!-- Grand Wedding Palace Facade -->
  <!-- Palace Dome / Arch Roof -->
  <path d="M 22 42 Q 50 18 78 42 Z" fill="currentColor" />
  
  <!-- Arch trim -->
  <path d="M 20 42 L 80 42 L 80 46 L 20 46 Z" fill="#c8a96a" />
  
  <!-- Heart emblem at the center of the dome -->
  <path d="M 50 34 C 48 30, 43 30, 43 33.5 C 43 36.5, 50 40, 50 40 C 50 40, 57 36.5, 57 33.5 C 57 30, 52 30, 50 34 Z" fill="#ffffff" />

  <!-- 4 Classic Columns -->
  <rect x="26" y="46" width="6" height="28" fill="currentColor" rx="1"/>
  <rect x="39" y="46" width="6" height="28" fill="currentColor" rx="1"/>
  <rect x="55" y="46" width="6" height="28" fill="currentColor" rx="1"/>
  <rect x="68" y="46" width="6" height="28" fill="currentColor" rx="1"/>

  <!-- Column Capitals/Bases -->
  <path d="M 24 46 L 34 46 M 37 46 L 47 46 M 53 46 L 63 46 M 66 46 L 76 46" stroke="#c8a96a" stroke-width="2" stroke-linecap="round"/>
  <path d="M 24 74 L 34 74 M 37 74 L 47 74 M 53 74 L 63 74 M 66 74 L 76 74" stroke="#c8a96a" stroke-width="2" stroke-linecap="round"/>

  <!-- Grand Stairs / Foundation -->
  <path d="M 16 76 L 84 76 L 84 80 L 16 80 Z" fill="#c8a96a" />
  <path d="M 12 80 L 88 80 L 88 85 L 12 85 Z" fill="currentColor" />
</svg>
